<svg xmlns="http://www.w3.org/2000/svg" viewBox="0 0 178.33 178.94"><defs><style>.cls-1{fill:#406563;}.cls-2{fill:#69a56c;}.cls-3,.cls-4,.cls-5{fill:#fff;}.cls-4{font-size:10.92px;}.cls-4,.cls-5{font-family:MyriadPro-Bold, Myriad Pro;font-weight:700;}.cls-5{font-size:16.85px;}</style></defs><g id="Layer_2" data-name="Layer 2"><g id="Layer_4" data-name="Layer 4"><path class="cls-1" d="M99.59,31.13a62.26,62.26,0,1,0,52.77,70.48A62.34,62.34,0,0,0,99.59,31.13Z"/><path class="cls-2" d="M65.45,91.6s1,2.25,0,3.76-4,1.42-4.3,4.57.37,4.36,1.8,6.66.35,3.7,2,4.81,5.38,1.77,4.63,4.64-2.06,8.2-1.37,9.52-.18,1.3-.41,2.92,2.06,3.28,1.88,5.35-2.25,4.09-.91,6.27,1.69,1.35,2.29,3.31,1,2.8,2.1,3.06,2.79.52,3.43,1.49,2.21-.79,1.14-1.82-2.44-.69-2-2.73,1.6-2.64,0-3.64-1.35-2.18-.68-2.2,2.19-.68.91-1.74-1.68-1.35-.69-1.32,4,1,6.74-1.57A64.71,64.71,0,0,0,87,127.27a7,7,0,0,0,.51-3.56c-.29-1.81,1.1-2.28,3.5-2s2.11-.91,2.11-.91,2.12,2.18,2.84-6.66c0,0-.13-1.45,2.6-2.72s.42-4.46-1.13-4.46c0,0-.6-2-1.88-2.26s-4.21.06-5.4-.89A17.33,17.33,0,0,0,87.35,102s1.46-6.31-4.72-6.31c0,0-.89-4.55-4-4.44s-3.48.38-3.92-.34-1-3.57-3.22-3-2.69,3.36-4.81,2.73-4.79-.47-4.15-2.59,1-4.6-2.31-4.64c0,0-.84-.34.54-1.46s.74-2.88,0-2.77S57.59,81,56.48,81s-4.67-.56-2.72-4.92,11.29-4.78,12-2.58-.12,3.07,2.06,3.28,1.52-3.65,1.52-3.65l5.94-3.67a4.73,4.73,0,0,0,1-1.18c.43-.71,7.67-4.19,9.23-6.62s2.09-3.78,4.15-2.72,2.9,1.31,3.43,0,3.23,2.12,4.32.62.59-3.34-1.68-3.67.7-2.55-.21-3.12-2.63,1.39-3.51.6,1-3.72-2-3.82-3.34.19-4.25,3.48-2.21,0-4.55,2.43-1.79,1-2-.51a3.73,3.73,0,0,0-3.48-2.71c-1.64-.12-1-3.12,1.43-3.76s5.33-1.78,5.33-1.78.26,2,2,1.5a3.84,3.84,0,0,0,2.32-2.31l1.73.25s1.18-1.27,1.52-1.33,3.89.56,3.89.56,2-.15.11.79-3.06-.22-2.64,1.49.55.75,1.82,1.92,3.29.92,3.74-.68c0,0,2.61,1,3.18-.64A1.61,1.61,0,0,0,99.38,46a5.35,5.35,0,0,0-2.56-3.68c-2.34-1.44-8.24-2.62-8.8.5S85.1,44,85.1,44a3.25,3.25,0,0,0,1.67-2.4c.25-1.74-4.39-2.51-4.5-1s1,2.24-.24,2.5a26.85,26.85,0,0,1-4,.76c-1.56.1-1.73-1.8-1.73-1.8a8.57,8.57,0,0,0,2.91-.24c1.71-.42,2.72-2,.82-2.65s.12,1.46-4.1.85c0,0-.52-.19-1-1.58s-4.34-2.06-5.74-.82-.65,2.22.51,2.61-.49,1.14,1.33,1.52,2.56.59,2.05,1.07-9.62-2.16-9.44-4.23c0,0-18.3,8.3-25.61,25.35a1.77,1.77,0,0,0,1.36,1.3c1.17.28,1.93.39,1.5,2.65s-1.12,7,1.89,7.55,1.5-2,.79-3.19-1.17-4.92.58-4-.82,1.1,1.78,6-1.42,4.54,1.71,8.09,4.89-.19,5.92,1.07,0,2,2.1,2.29,1.19-.61,2.12,1.4S59.39,93.05,65.45,91.6Z"/><path class="cls-2" d="M86.38,62.71s-1.64.64-.88,1.53S88.31,64.64,86.38,62.71Z"/><path class="cls-2" d="M88.8,59.74a.89.89,0,0,0-1.12.83c-.15,1.09,1.64,1.68,2.2.87S88.8,59.74,88.8,59.74Z"/><path class="cls-2" d="M94.91,60.18s-2.82-.3-1.59,1.87a7.92,7.92,0,0,1,1.59,1.22c.77.77,2.72,1,2.89-.14S97.51,60.55,94.91,60.18Z"/><path class="cls-2" d="M123.6,76.45s-5.07-1.62-6.74,1.57-1,3.61-5.68,4.92S110,87.08,110,87.08s1.51,1-.3,2.06-2.58,4.15-1.75,6,3.32,6.11,5.08,6.91,6.86,1.43,7.93.15,2-1.48,3.33-.19,5.89.52,5.38,1.77-2.89,4-1.06,7.36,3.12,6,1,7.76-2,4.12-.12,6.16c0,0-1.5,4.31-.11,6.17a6.11,6.11,0,0,1,.63,5.61c-.51,1.25,0,.55,0,.55s-.39,1.94.65.87,23.78-21.09,20-53.66c0,0-5.48.54-6-1.08s-2.33-2.21-5.95-1.63-2.19-.87-3.45-1.38a5.25,5.25,0,0,0-2.61-.26S136.35,73.75,123.6,76.45Z"/><path class="cls-2" d="M125.52,68.44s.67,2.31-.91,1.75-5.67-2-5.89,1.8,3.21,3.77,6.18,3.1,4.47-4.22,4.47-4.22,3,1.53,4.14-.4c0,0,1.25,3.61,3.06,4.09a1.69,1.69,0,0,0-1.4,2c.31,1.7,5.29.87,4.21-2.37s-6.12-2.76-3.1-4.53,4.38,3.28,4.41,4.61-1.08,4.48,1.52,3.3,2-5,2.86-3-.72,4.21,1.68,4.44a17.71,17.71,0,0,1,3,.44s-4.12-15.94-12.95-25.93c0,0-.06,1.2-2.29,1.33s-3.6,2.79-2.07,4.44,3.86.78,3.8,2-.48,1.8-2.24,1-2.89-.64-3.34.95-1.18,2.82-2.41,2.2S124.13,65.81,125.52,68.44Z"/><path class="cls-2" d="M121.64,59.38a2,2,0,0,0-.49,3.36c2,2.05,2.57-2.51,3.62-2.13s1,1.47.29,1.81-2.1,1.57-.72,2,4.69,1.11,4.65-.88a2,2,0,0,0-1.56-2.21s-1.51-1.76-.41-3.26a1.39,1.39,0,0,0-1.56-1.44c-1.66,0-1.61,2.75-1.95,2.81A16.59,16.59,0,0,1,121.64,59.38Z"/><path class="cls-2" d="M91.48,61.78a3.12,3.12,0,0,1-1.7,1.08c-.89.1-2.07-.18-1.42,1.46s2.1,0,2.1,0S93.66,63.53,91.48,61.78Z"/><path class="cls-3" d="M148.94,80.84l2.9.82a.17.17,0,0,1,.12.22.18.18,0,0,1-.22.13h0Z"/><path class="cls-3" d="M157.61,83.89a22,22,0,0,1,2.74,1.57,12.08,12.08,0,0,1,2.46,2.14.84.84,0,0,1-.1,1.17.83.83,0,0,1-1.17-.09l0-.06a15.7,15.7,0,0,0-4.4-3.81.53.53,0,0,1,.51-.92Z"/><path class="cls-3" d="M163.71,94.35a10.24,10.24,0,0,1-2.12,2.71,19,19,0,0,1-2.6,2,1.32,1.32,0,0,1-1.46-2.21l.07,0h0a12.11,12.11,0,0,0,4.2-3.52l0,0a1.09,1.09,0,0,1,1.88,1.09Z"/><path class="cls-3" d="M153.36,102q-2.9,1.24-5.87,2.22a1.73,1.73,0,1,1-1.07-3.28l.09,0c1.93-.52,3.85-1.08,5.72-1.75a1.53,1.53,0,0,1,1.13,2.84Z"/><path class="cls-3" d="M141.5,106l-6.05,1.43a2,2,0,1,1-.93-3.93h.09l.09,0,5.94-1.11h.09a1.87,1.87,0,0,1,.77,3.65Z"/><path class="cls-3" d="M129.36,108.59l-6.13.93a2.23,2.23,0,1,1-.67-4.4h.12l6-.74h.06a2.14,2.14,0,0,1,.59,4.24Z"/><path class="cls-3" d="M117.09,110.29l-6.16.6a2.4,2.4,0,1,1-.47-4.77h.12l6.06-.43h0a2.32,2.32,0,0,1,.4,4.62Z"/><path class="cls-3" d="M104.76,111.31l-6.17.28a2.45,2.45,0,1,1-.23-4.9h.07l6.08-.23h0a2.43,2.43,0,0,1,.2,4.85Z"/><path class="cls-3" d="M92.41,111.75l-3.09,0c-1,0-2.06,0-3.09,0a2.49,2.49,0,0,1,0-5h6.14a2.48,2.48,0,0,1,0,5Z"/><path class="cls-3" d="M80,111.62l-6.18-.29a2.43,2.43,0,0,1,.2-4.85h.06l6.07.22h.06a2.46,2.46,0,0,1-.18,4.92Z"/><path class="cls-3" d="M67.69,110.91l-6.16-.61a2.32,2.32,0,0,1,.4-4.63H62l6.06.45h.06a2.4,2.4,0,1,1-.36,4.78Z"/><path class="cls-3" d="M55.39,109.52l-6.12-.93a2.15,2.15,0,0,1,.59-4.26h.06l6,.75H56a2.24,2.24,0,0,1-.55,4.44Z"/><path class="cls-3" d="M43.18,107.43l-6-1.4a1.88,1.88,0,0,1,.75-3.68l.09,0,6,1.08H44a2,2,0,0,1-.73,4Z"/><path class="cls-3" d="M31.13,104.35c-2-.62-3.95-1.33-5.89-2.12a1.54,1.54,0,0,1,1.07-2.88c1.89.63,3.83,1.17,5.77,1.67a1.73,1.73,0,1,1-.87,3.35Z"/><path class="cls-3" d="M19.54,99.47a16.83,16.83,0,0,1-5.06-4.18,1.1,1.1,0,0,1,1.68-1.41l0,0a16,16,0,0,0,4.62,3.21h0a1.33,1.33,0,1,1-1.21,2.38Z"/><path class="cls-3" d="M14.07,88.49a9.86,9.86,0,0,1,2.28-2.4A19.46,19.46,0,0,1,19,84.38a.53.53,0,0,1,.55.91,12.43,12.43,0,0,0-4.05,4,.84.84,0,0,1-1.14.34A.83.83,0,0,1,14,88.55Z"/><path class="cls-3" d="M24.75,82l2.88-.86-2.75,1.2h0a.18.18,0,0,1-.24-.09.19.19,0,0,1,.1-.25Z"/><path class="cls-3" d="M27.25,96.9l-4.68-4.76,3.37-11.9a.93.93,0,0,0-.24-.91L23,76.6a.94.94,0,0,0-1.48.2L16.4,85.86l-4.21-4.28.63-4.16a.94.94,0,0,0-.25-.8L10.93,75a.93.93,0,0,0-1.46.17L6.25,80.86.46,84a.93.93,0,0,0-.19,1.46L1.9,87.1a.93.93,0,0,0,.79.27l4.17-.56,4.21,4.29-9.15,5a.92.92,0,0,0-.22,1.47l2.68,2.73a.94.94,0,0,0,.9.25l12-3.15,4.68,4.76c1.45,1.47,5.12,2.83,6.59,1.38S28.7,98.38,27.25,96.9Z"/><text class="cls-4" transform="translate(33.02 154.16) rotate(40.75)">(</text><text class="cls-4" transform="translate(35.8 156.59) rotate(37.48)">T</text><text class="cls-4" transform="translate(40.57 160.29) rotate(32.88)">O</text><text class="cls-4" transform="matrix(0.87, 0.49, -0.49, 0.87, 47.44, 164.62)"> </text><text class="cls-4" transform="translate(49.53 165.85) rotate(26.54)">E</text><text class="cls-4" transform="translate(55.13 168.65) rotate(22)">V</text><text class="cls-4" transform="matrix(0.95, 0.3, -0.3, 0.95, 61.92, 171.35)">E</text><text class="cls-4" transform="translate(67.82 173.21) rotate(13.16)">R</text><text class="cls-4" transform="matrix(0.98, 0.18, -0.18, 0.98, 74.37, 174.68)"> </text><text class="cls-4" transform="translate(76.8 175.18) rotate(6.7)">H</text><text class="cls-4" transform="translate(84.67 176.08) rotate(1.61)">A</text><text class="cls-4" transform="matrix(1, -0.05, 0.05, 1, 91.54, 176.28)">V</text><text class="cls-4" transform="matrix(0.99, -0.13, 0.13, 0.99, 98.83, 175.89)">E</text><text class="cls-4" transform="matrix(0.98, -0.17, 0.17, 0.98, 104.82, 175.08)"> </text><text class="cls-4" transform="matrix(0.97, -0.22, 0.22, 0.97, 107.24, 174.69)">E</text><text class="cls-4" transform="matrix(0.95, -0.3, 0.3, 0.95, 113.28, 173.31)">X</text><text class="cls-4" transform="translate(119.9 171.19) rotate(-20.75)">I</text><text class="cls-4" transform="translate(123.05 170.03) rotate(-23.91)">S</text><text class="cls-4" transform="translate(128.76 167.48) rotate(-28.1)">T</text><text class="cls-4" transform="matrix(0.85, -0.53, 0.53, 0.85, 134.32, 164.5)">E</text><text class="cls-4" transform="translate(139.58 161.2) rotate(-36.92)">D</text><text class="cls-4" transform="translate(145.84 156.4) rotate(-40.75)">)</text><text class="cls-5" transform="translate(17.25 68.64) rotate(-66.67)">T</text><text class="cls-5" transform="matrix(0.5, -0.87, 0.87, 0.5, 20.7, 60.41)">H</text><text class="cls-5" transform="matrix(0.59, -0.81, 0.81, 0.59, 26.39, 50.63)">E</text><text class="cls-5" transform="matrix(0.65, -0.76, 0.76, 0.65, 31.67, 43.6)"> </text><text class="cls-5" transform="translate(33.64 41.05) rotate(-45.38)">B</text><text class="cls-5" transform="matrix(0.78, -0.63, 0.63, 0.78, 40.58, 34.04)">E</text><text class="cls-5" transform="matrix(0.84, -0.54, 0.54, 0.84, 47.32, 28.54)">S</text><text class="cls-5" transform="matrix(0.9, -0.44, 0.44, 0.9, 54.69, 23.74)">T</text><text class="cls-5" transform="translate(62.81 19.83) rotate(-21.73)"> </text><text class="cls-5" transform="matrix(0.95, -0.3, 0.3, 0.95, 65.11, 18.76)">T</text><text class="cls-5" transform="translate(73.59 16.04) rotate(-10.03)">R</text><text class="cls-5" transform="translate(83.21 14.29) rotate(-1.63)">A</text><text class="cls-5" transform="translate(92.91 13.95) rotate(5.41)">V</text><text class="cls-5" transform="translate(103.26 14.96) rotate(12.37)">E</text><text class="cls-5" transform="matrix(0.95, 0.32, -0.32, 0.95, 111.76, 16.82)">L</text><text class="cls-5" transform="translate(119.69 19.59) rotate(22.86)"> </text><text class="cls-5" transform="translate(122.68 20.65) rotate(27.97)">A</text><text class="cls-5" transform="matrix(0.81, 0.58, -0.58, 0.81, 131.78, 25.41)">G</text><text class="cls-5" transform="matrix(0.73, 0.68, -0.68, 0.73, 140.83, 31.96)">E</text><text class="cls-5" transform="matrix(0.64, 0.77, -0.77, 0.64, 147.25, 37.75)">N</text><text class="cls-5" transform="matrix(0.54, 0.84, -0.84, 0.54, 154.48, 46.4)">C</text><text class="cls-5" transform="translate(159.76 54.68) rotate(64.78)">Y</text><text class="cls-5" transform="translate(163.87 63.72) rotate(69.58)"> </text></g></g></svg>